<?xml version="1.0" encoding="UTF-8" standalone="no"?><!DOCTYPE svg PUBLIC "-//W3C//DTD SVG 1.1//EN" "http://www.w3.org/Graphics/SVG/1.1/DTD/svg11.dtd"><svg width="100%" height="100%" viewBox="0 0 64 64" version="1.1" xmlns="http://www.w3.org/2000/svg" xmlns:xlink="http://www.w3.org/1999/xlink" xml:space="preserve" xmlns:serif="http://www.serif.com/" style="fill-rule:evenodd;clip-rule:evenodd;stroke-linejoin:round;stroke-miterlimit:2;"><path d="M64,9.6l0,44.8c0,5.298 -4.302,9.6 -9.6,9.6l-44.8,0c-5.298,0 -9.6,-4.302 -9.6,-9.6l0,-44.8c0,-5.298 4.302,-9.6 9.6,-9.6l44.8,0c5.298,0 9.6,4.302 9.6,9.6Z" style="fill:#2c2a29;"/><path d="M33.867,55.333l9.333,-9.333l7.467,-0l9.333,9.333l-26.133,0Z" style="fill:#ff4f00;"/><path d="M60,8.667l-9.333,9.333l-7.467,-0l-9.333,-9.333l26.133,-0Z" style="fill:#ff4f00;"/><path d="M15.2,8.667l16.8,-0l9.333,9.333l0,28l-9.333,9.333l-16.8,0l9.333,-9.333l5.6,-0l1.867,-1.867l0,-24.266l-1.867,-1.867l-5.6,-0l-9.333,-9.333Z" style="fill:#fbbf24;"/><path d="M15.2,18l7.467,-0l-9.334,-9.333l-9.333,9.333l-0,28l9.333,9.333l9.334,-9.333l-7.467,0l-1.867,-1.867l0,-24.266l1.867,-1.867Z" style="fill:#f2f1f0;"/></svg>